<?xml version="1.0" encoding="UTF-8"?>
<svg width="50px" height="51px" viewBox="0 0 50 51" version="1.1" xmlns="http://www.w3.org/2000/svg" xmlns:xlink="http://www.w3.org/1999/xlink">
    <!-- Generator: Sketch 52.4 (67378) - http://www.bohemiancoding.com/sketch -->
    <title>begin</title>
    <desc>Created with Sketch.</desc>
    <defs>
        <rect id="path-1" x="0" y="0" width="52" height="52"></rect>
    </defs>
    <g id="US_TICKET" stroke="none" stroke-width="1" fill="none" fill-rule="evenodd">
        <g id="Artboard" transform="translate(-30.000000, -685.000000)">
            <g id="Group-3">
                <g id="begin" transform="translate(30.000000, 684.000000)">
                    <mask id="mask-2" fill="white">
                        <use xlink:href="#path-1"></use>
                    </mask>
                    <g id="_mask" fill-rule="nonzero"></g>
                    <path d="M13.0233767,42.9141889 C13.0233767,44.2632711 13.0233767,45.6181434 13.0233767,46.9672256 C13.0233767,47.2856784 13.0233767,47.6099214 13.0233767,47.9283742 C13.029154,49.3527271 13.7570924,50.77708 15.0338732,51.4718863 C15.8946892,51.9408805 16.7381733,51.9814109 17.6625395,51.9814109 C18.4598053,51.9814109 19.2512938,51.9814109 20.0485596,51.9814109 C22.7407761,51.9814109 25.4387699,51.9814109 28.1309863,51.9814109 C31.2622767,51.9814109 34.3935671,51.9814109 37.5190803,51.9814109 C39.8415503,51.9814109 42.1697976,51.9814109 44.4922676,51.9814109 C44.9717825,51.9814109 45.4570747,51.9814109 45.9365897,51.9814109 C48.1550685,51.9698308 49.9171415,50.1864947 49.9344734,47.9631146 C49.9402507,46.8977449 49.9344734,45.8265852 49.9344734,44.7612156 C49.9344734,42.4394046 49.9344734,40.1175936 49.9344734,37.8015727 C49.9344734,34.7849554 49.9344734,31.7741282 49.9344734,28.7575109 C49.9344734,25.6019324 49.9344734,22.4405638 49.9344734,19.2849853 C49.9344734,16.5636607 49.9344734,13.8423361 49.9344734,11.1268015 C49.9344734,9.3955759 49.9344734,7.66435025 49.9344734,5.9331246 C49.9344734,5.61467172 49.9402507,5.29042879 49.9344734,4.97197591 C49.9113642,3.61131361 49.2643079,2.42435288 48.1435139,1.66585602 C47.484903,1.22002199 46.6876372,1.03474031 45.9077033,1.03474031 C44.3882764,1.02895026 42.8688495,1.03474031 41.3494226,1.03474031 C38.455001,1.03474031 35.5548021,1.03474031 32.6603806,1.03474031 C29.6041949,1.03474031 26.5480093,1.03474031 23.4918236,1.03474031 C21.5217682,1.03474031 19.5459355,1.03474031 17.5758801,1.03474031 C17.3967842,1.03474031 17.2176882,1.03474031 17.0443696,1.03474031 C16.1257807,1.04053037 15.2765193,1.30687277 14.5485809,1.86850785 C13.5433327,2.65016492 13.0233767,3.80238533 13.0233767,5.0704068 C13.0233767,5.42359999 13.0233767,5.77100313 13.0233767,6.12419632 C13.0233767,9.00185234 13.0233767,11.8737183 13.0233767,14.7513743 C13.0233767,15.4172303 13.0233767,16.0830864 13.0233767,16.7489424 C13.0233767,17.9590633 14.0863978,19.1228638 15.3342922,19.0649633 C16.5879638,19.0070628 17.6452076,18.0459141 17.6452076,16.7489424 C17.6452076,15.3998602 17.6452076,14.0449879 17.6452076,12.6959057 C17.6452076,10.5651665 17.6452076,8.44021726 17.6452076,6.309478 C17.6452076,5.95821482 17.6452076,5.74012285 17.6452076,5.65520208 C18.3500368,5.65520208 19.0895297,5.65520208 19.7943589,5.65520208 C22.1110516,5.65520208 24.4277444,5.65520208 26.7444371,5.65520208 C29.5753085,5.65520208 32.4004026,5.65520208 35.231274,5.65520208 C37.6519579,5.65520208 40.0784191,5.65520208 42.499103,5.65520208 C42.9639277,5.65520208 43.9056257,5.65520208 45.3241971,5.65520208 C45.3241971,5.79274463 45.3241971,5.92012578 45.3241971,6.03734554 C45.3241971,7.07955496 45.3241971,8.12176438 45.3241971,9.1639738 C45.3241971,10.7099178 45.3241971,12.2558618 45.3241971,13.8018057 C45.3241971,15.6951528 45.3241971,17.5827099 45.3241971,19.476057 C45.3241971,21.5488958 45.3241971,23.6217345 45.3241971,25.6945732 C45.3241971,27.7963622 45.3241971,29.8981512 45.3241971,31.9999402 C45.3241971,33.9511879 45.3241971,35.9024355 45.3241971,37.8478931 C45.3241971,39.492268 45.3241971,41.1366428 45.3241971,42.7810177 C45.3241971,43.9563983 45.3241971,45.131779 45.3241971,46.3129496 C45.3241971,46.6757929 45.3241971,47.019336 45.3241971,47.343579 C44.6193679,47.343579 43.8856523,47.343579 43.1808231,47.343579 C40.8641303,47.343579 38.5474376,47.343579 36.2307449,47.343579 C33.3998735,47.343579 30.5747794,47.343579 27.743908,47.343579 C25.3232241,47.343579 22.8967629,47.343579 20.476079,47.343579 C20.001162,47.343579 19.0613898,47.343579 17.6567622,47.343579 C17.6567622,47.1814198 17.6567622,47.0443885 17.6567622,46.9324852 C17.6567622,46.0060769 17.6567622,45.0738784 17.6567622,44.1474701 C17.6567622,42.0167308 17.6567622,39.8802015 17.6567622,37.7494622 C17.6567622,37.2515177 17.6567622,36.7535732 17.6567622,36.2556287 C17.6567622,35.0455078 16.5937411,33.8817073 15.3458467,33.9396078 C14.0806205,34.0032984 13.0233767,34.964447 13.0233767,36.2614188 C13.0233767,38.4790088 13.0233767,40.6965989 13.0233767,42.9141889 Z" id="Path" fill="#777777" mask="url(#mask-2)"></path>
                    <path d="M2.36427933,28.8212015 C3.48507331,28.8212015 4.60009,28.8212015 5.72088399,28.8212015 C8.40732317,28.8212015 11.0937624,28.8212015 13.7802015,28.8212015 C17.0270377,28.8212015 20.2796512,28.8212015 23.5264873,28.8212015 C26.3342496,28.8212015 29.1420118,28.8212015 31.9555514,28.8212015 C33.3189915,28.8212015 34.6882089,28.8385717 36.051649,28.8212015 C36.0689808,28.8212015 36.09209,28.8212015 36.1094218,28.8212015 C37.3168752,28.8212015 38.4781102,27.7558319 38.4203373,26.5051806 C38.3625644,25.2487392 37.4035345,24.1891596 36.1094218,24.1891596 C34.9886279,24.1891596 33.8736112,24.1891596 32.7528172,24.1891596 C30.066378,24.1891596 27.3799388,24.1891596 24.6934996,24.1891596 C21.4466635,24.1891596 18.19405,24.1891596 14.9472138,24.1891596 C12.1394516,24.1891596 9.33168934,24.1891596 6.51814981,24.1891596 C5.15470971,24.1891596 3.78549232,24.1717895 2.42205221,24.1891596 C2.40472035,24.1891596 2.38161119,24.1891596 2.36427933,24.1891596 C1.15682602,24.1891596 -0.00440898338,25.2545293 0.0533639023,26.5051806 C0.105359499,27.7616219 1.0643894,28.8212015 2.36427933,28.8212015 Z" id="Path" fill="#777777" mask="url(#mask-2)"></path>
                    <path d="M26.201372,19.8003 C27.1315154,20.7324984 28.0616589,21.6646968 28.9918023,22.5968952 C30.4765655,24.0849387 31.9555514,25.5671921 33.4403145,27.0552355 C33.7811746,27.3968486 34.1278119,27.7442518 34.4686719,28.0858649 C34.4686719,26.991545 34.4686719,25.9030151 34.4686719,24.8086952 C33.5385284,25.7408937 32.608385,26.6730921 31.6782415,27.6052905 C30.1934784,29.093334 28.7144925,30.5755874 27.2297293,32.0636308 C26.8888693,32.4052439 26.542232,32.7526471 26.201372,33.0942601 C25.3463332,33.9511879 25.2827831,35.5260821 26.201372,36.3714298 C27.1257381,37.2225675 28.5585057,37.286258 29.4713173,36.3714298 C30.4014607,35.4392313 31.3316042,34.5070329 32.2617477,33.5748345 C33.7465108,32.086791 35.2254967,30.6045376 36.7102599,29.1164942 C37.0511199,28.7748811 37.3977572,28.427478 37.7386172,28.0858649 C38.6225424,27.1999869 38.6225424,25.6945732 37.7386172,24.8086952 C36.8084738,23.8764968 35.8783303,22.9442984 34.9481868,22.0121 C33.4634237,20.5240565 31.9844378,19.0418031 30.4996746,17.5537597 C30.1588146,17.2121466 29.8121773,16.8647434 29.4713173,16.5231303 C28.6162786,15.6662026 27.0448561,15.602512 26.201372,16.5231303 C25.3521105,17.4495387 25.2885604,18.8854717 26.201372,19.8003 Z" id="Path" fill="#777777" mask="url(#mask-2)"></path>
                </g>
            </g>
        </g>
    </g>
</svg>
