<?xml version="1.0" encoding="UTF-8"?>
<svg width="52px" height="51px" viewBox="0 0 52 51" version="1.1" xmlns="http://www.w3.org/2000/svg" xmlns:xlink="http://www.w3.org/1999/xlink">
    <!-- Generator: Sketch 52.4 (67378) - http://www.bohemiancoding.com/sketch -->
    <title>end</title>
    <desc>Created with Sketch.</desc>
    <defs>
        <rect id="path-1" x="0" y="0" width="52" height="52"></rect>
    </defs>
    <g id="US_TICKET" stroke="none" stroke-width="1" fill="none" fill-rule="evenodd">
        <g id="Artboard" transform="translate(-1188.000000, -685.000000)">
            <g id="Group-3">
                <g id="end" transform="translate(1214.000000, 710.000000) scale(-1, 1) translate(-1214.000000, -710.000000) translate(1188.000000, 684.000000)">
                    <mask id="mask-2" fill="white">
                        <use xlink:href="#path-1"></use>
                    </mask>
                    <g id="_mask" fill-rule="nonzero"></g>
                    <path d="M15.0233767,42.9141889 C15.0233767,44.2632711 15.0233767,45.6181434 15.0233767,46.9672256 C15.0233767,47.2856784 15.0233767,47.6099214 15.0233767,47.9283742 C15.029154,49.3527271 15.7570924,50.77708 17.0338732,51.4718863 C17.8946892,51.9408805 18.7381733,51.9814109 19.6625395,51.9814109 C20.4598053,51.9814109 21.2512938,51.9814109 22.0485596,51.9814109 C24.7407761,51.9814109 27.4387699,51.9814109 30.1309863,51.9814109 C33.2622767,51.9814109 36.3935671,51.9814109 39.5190803,51.9814109 C39.9412688,51.9814109 40.3636483,51.9814109 40.7861493,51.9814109 C42.687837,51.9814109 44.5919861,51.9814109 46.4922676,51.9814109 C46.9717825,51.9814109 47.4570747,51.9814109 47.9365897,51.9814109 C50.1550685,51.9698308 51.9171415,50.1864947 51.9344734,47.9631146 C51.9402507,46.8977449 51.9344734,45.8265852 51.9344734,44.7612156 C51.9344734,42.4394046 51.9344734,40.1175936 51.9344734,37.8015727 C51.9344734,34.7849554 51.9344734,31.7741282 51.9344734,28.7575109 C51.9344734,25.6019324 51.9344734,22.4405638 51.9344734,19.2849853 C51.9344734,16.5636607 51.9344734,13.8423361 51.9344734,11.1268015 C51.9344734,9.3955759 51.9344734,7.66435025 51.9344734,5.9331246 C51.9344734,5.61467172 51.9402507,5.29042879 51.9344734,4.97197591 C51.9113642,3.61131361 51.2643079,2.42435288 50.1435139,1.66585602 C49.484903,1.22002199 48.6876372,1.03474031 47.9077033,1.03474031 C46.3882764,1.02895026 44.8688495,1.03474031 43.3494226,1.03474031 C40.455001,1.03474031 37.5548021,1.03474031 34.6603806,1.03474031 C31.6041949,1.03474031 28.5480093,1.03474031 25.4918236,1.03474031 C23.5217682,1.03474031 21.5459355,1.03474031 19.5758801,1.03474031 C19.3967842,1.03474031 19.2176882,1.03474031 19.0443696,1.03474031 C18.1257807,1.04053037 17.2765193,1.30687277 16.5485809,1.86850785 C15.5433327,2.65016492 15.0233767,3.80238533 15.0233767,5.0704068 C15.0233767,5.42359999 15.0233767,5.77100313 15.0233767,6.12419632 C15.0233767,9.00185234 15.0233767,11.8737183 15.0233767,14.7513743 C15.0233767,15.4172303 15.0233767,16.0830864 15.0233767,16.7489424 C15.0233767,17.9590633 16.0863978,19.1228638 17.3342922,19.0649633 C18.5879638,19.0070628 19.6452076,18.0459141 19.6452076,16.7489424 C19.6452076,15.3998602 19.6452076,14.0449879 19.6452076,12.6959057 C19.6452076,10.5651665 19.6452076,8.44021726 19.6452076,6.309478 C19.6452076,6.19640585 19.6452076,5.97831388 19.6452076,5.65520208 C20.7593461,5.65520208 21.4757299,5.65520208 21.7943589,5.65520208 C24.1110516,5.65520208 26.4277444,5.65520208 28.7444371,5.65520208 C31.5753085,5.65520208 34.4004026,5.65520208 37.231274,5.65520208 C39.6519579,5.65520208 42.0784191,5.65520208 44.499103,5.65520208 C44.9610436,5.65520208 45.9027416,5.65520208 47.3241971,5.65520208 C47.3241971,5.79165173 47.3241971,5.91903288 47.3241971,6.03734554 C47.3241971,7.07955496 47.3241971,8.12176438 47.3241971,9.1639738 C47.3241971,10.7099178 47.3241971,12.2558618 47.3241971,13.8018057 C47.3241971,15.6951528 47.3241971,17.5827099 47.3241971,19.476057 C47.3241971,21.5488958 47.3241971,23.6217345 47.3241971,25.6945732 C47.3241971,27.7963622 47.3241971,29.8981512 47.3241971,31.9999402 C47.3241971,33.9511879 47.3241971,35.9024355 47.3241971,37.8478931 C47.3241971,39.492268 47.3241971,41.1366428 47.3241971,42.7810177 C47.3241971,43.9563983 47.3241971,45.131779 47.3241971,46.3129496 C47.3241971,46.4518977 47.3241971,46.7954408 47.3241971,47.343579 C46.1852278,47.343579 45.4707698,47.343579 45.1808231,47.343579 C42.8641303,47.343579 40.5474376,47.343579 38.2307449,47.343579 C35.3998735,47.343579 32.5747794,47.343579 29.743908,47.343579 C27.3232241,47.343579 24.8967629,47.343579 22.476079,47.343579 C21.947528,47.343579 21.0096814,47.343579 19.6625395,47.343579 C19.6586879,47.1613628 19.6567622,47.0243316 19.6567622,46.9324852 C19.6567622,46.0060769 19.6567622,45.0738784 19.6567622,44.1474701 C19.6567622,42.0167308 19.6567622,39.8802015 19.6567622,37.7494622 C19.6567622,37.2515177 19.6567622,36.7535732 19.6567622,36.2556287 C19.6567622,35.0455078 18.5937411,33.8817073 17.3458467,33.9396078 C16.0806205,34.0032984 15.0233767,34.964447 15.0233767,36.2614188 C15.0233767,38.4790088 15.0233767,40.6965989 15.0233767,42.9141889 Z" id="Path" fill="#777777" mask="url(#mask-2)"></path>
                    <path d="M4.36427933,28.8212015 C5.48507331,28.8212015 6.60009,28.8212015 7.72088399,28.8212015 C10.4073232,28.8212015 13.0937624,28.8212015 15.7802015,28.8212015 C19.0270377,28.8212015 22.2796512,28.8212015 25.5264873,28.8212015 C28.3342496,28.8212015 31.1420118,28.8212015 33.9555514,28.8212015 C35.3189915,28.8212015 36.6882089,28.8385717 38.051649,28.8212015 C38.0689808,28.8212015 38.09209,28.8212015 38.1094218,28.8212015 C39.3168752,28.8212015 40.4781102,27.7558319 40.4203373,26.5051806 C40.3625644,25.2487392 39.4035345,24.1891596 38.1094218,24.1891596 C36.9886279,24.1891596 35.8736112,24.1891596 34.7528172,24.1891596 C32.066378,24.1891596 29.3799388,24.1891596 26.6934996,24.1891596 C23.4466635,24.1891596 20.19405,24.1891596 16.9472138,24.1891596 C14.1394516,24.1891596 11.3316893,24.1891596 8.51814981,24.1891596 C7.15470971,24.1891596 5.78549232,24.1717895 4.42205221,24.1891596 C4.40472035,24.1891596 4.38161119,24.1891596 4.36427933,24.1891596 C3.15682602,24.1891596 1.99559102,25.2545293 2.0533639,26.5051806 C2.1053595,27.7616219 3.0643894,28.8212015 4.36427933,28.8212015 Z" id="Path" fill="#777777" mask="url(#mask-2)"></path>
                    <path d="M1.20137195,19.8003 C2.13151541,20.7324984 3.06165887,21.6646968 3.99180233,22.5968952 C5.47656549,24.0849387 6.95555137,25.5671921 8.44031453,27.0552355 C8.78117455,27.3968486 9.12781187,27.7442518 9.46867189,28.0858649 C9.46867189,26.991545 9.46867189,25.9030151 9.46867189,24.8086952 C8.53852843,25.7408937 7.60838497,26.6730921 6.67824151,27.6052905 C5.19347835,29.093334 3.71449248,30.5755874 2.22972932,32.0636308 C1.88886929,32.4052439 1.54223198,32.7526471 1.20137195,33.0942601 C0.346333246,33.9511879 0.282783072,35.5260821 1.20137195,36.3714298 C2.12573812,37.2225675 3.55850569,37.286258 4.47131728,36.3714298 C5.40146074,35.4392313 6.3316042,34.5070329 7.26174766,33.5748345 C8.74651082,32.086791 10.2254967,30.6045376 11.7102599,29.1164942 C12.0511199,28.7748811 12.3977572,28.427478 12.7386172,28.0858649 C13.6225424,27.1999869 13.6225424,25.6945732 12.7386172,24.8086952 C11.8084738,23.8764968 10.8783303,22.9442984 9.94818684,22.0121 C8.46342368,20.5240565 6.98443781,19.0418031 5.49967465,17.5537597 C5.15881462,17.2121466 4.81217731,16.8647434 4.47131728,16.5231303 C3.61627857,15.6662026 2.04485608,15.602512 1.20137195,16.5231303 C0.352110535,17.4495387 0.288560361,18.8854717 1.20137195,19.8003 Z" id="Path" fill="#777777" mask="url(#mask-2)" transform="translate(6.968805, 26.445109) scale(-1, 1) translate(-6.968805, -26.445109) "></path>
                </g>
            </g>
        </g>
    </g>
</svg>
